<?xml version="1.0" standalone="no"?>
<!DOCTYPE svg PUBLIC "-//W3C//DTD SVG 20010904//EN"
 "http://www.w3.org/TR/2001/REC-SVG-20010904/DTD/svg10.dtd">
<svg version="1.0" xmlns="http://www.w3.org/2000/svg"
 width="733.000000pt" height="133.000000pt" viewBox="0 0 733.000000 133.000000"
 preserveAspectRatio="xMidYMid meet">

<g transform="translate(0.000000,133.000000) scale(0.100000,-0.100000)"
fill="#ffffff" stroke="none">
<path d="M6172 1058 c-119 -244 -126 -267 -89 -268 4 0 20 21 35 46 37 63 108
151 134 165 38 20 38 -5 2 -80 -37 -76 -41 -117 -12 -135 35 -21 113 49 88 80
-10 12 -15 10 -32 -12 -13 -16 -24 -22 -30 -16 -6 6 5 34 27 75 47 86 46 130
-3 135 -21 2 -43 -4 -62 -18 -17 -12 -30 -18 -30 -13 0 4 32 66 70 137 64 119
68 130 52 142 -9 7 -19 14 -22 14 -3 0 -60 -113 -128 -252z"/>
<path d="M611 1231 c-72 -25 -101 -49 -131 -107 l-25 -48 -3 -384 c-2 -254 1
-402 8 -437 15 -74 56 -126 121 -156 l54 -24 400 0 400 0 57 27 c64 30 101 76
117 148 14 60 14 760 0 820 -16 72 -53 118 -117 148 l-57 27 -385 2 c-354 3
-389 1 -439 -16z m498 -191 c19 -5 51 -21 72 -36 36 -25 89 -93 89 -114 0 -5
-19 -10 -41 -10 -33 0 -49 7 -80 34 -108 98 -269 25 -269 -122 0 -77 78 -152
157 -152 50 0 87 16 122 54 19 20 34 26 68 26 24 0 43 -4 43 -8 0 -25 -64
-104 -104 -127 -54 -32 -145 -43 -199 -26 -96 32 -165 119 -174 220 -5 49 -1
67 20 112 30 64 40 76 89 113 59 44 134 57 207 36z m-164 -631 c45 -27 142
-24 175 6 21 19 21 18 52 -12 37 -38 32 -50 -37 -82 -81 -38 -197 -24 -270 32
-20 15 -20 16 9 46 17 17 31 31 32 31 2 0 19 -10 39 -21z"/>
<path d="M6564 1035 c-7 -30 -15 -31 -32 -5 -28 45 -96 9 -136 -72 -30 -60
-34 -128 -10 -152 18 -18 40 -21 49 -6 3 6 12 10 20 10 9 0 -4 -39 -40 -122
-46 -106 -51 -125 -39 -138 9 -9 17 -11 22 -5 5 6 55 120 111 254 80 191 100
246 89 252 -21 14 -27 11 -34 -16z m-54 -52 c0 -27 -45 -116 -68 -137 -20 -17
-22 -17 -28 -2 -8 20 19 95 47 130 23 30 49 34 49 9z"/>
<path d="M2735 1033 c-136 -71 -264 -312 -273 -514 -4 -83 -1 -101 17 -137 25
-50 72 -86 129 -102 87 -23 169 18 287 142 46 48 86 88 88 88 2 0 3 -30 3 -67
-1 -51 4 -77 19 -103 26 -45 84 -74 130 -66 43 8 127 74 161 126 15 22 30 40
34 40 4 0 10 -21 13 -46 6 -59 33 -95 84 -113 37 -13 45 -13 89 4 101 38 227
197 369 462 l69 129 83 -1 c46 0 83 -3 83 -6 0 -4 -21 -42 -47 -84 -60 -100
-122 -243 -134 -312 -23 -125 40 -216 139 -199 49 7 126 60 179 123 25 29 49
50 53 46 4 -4 12 -27 18 -49 20 -71 91 -124 164 -124 123 1 287 175 492 522
l58 96 29 -10 c17 -6 57 -8 90 -6 32 2 59 3 59 1 0 -1 -15 -26 -33 -55 -174
-275 -207 -458 -94 -529 45 -28 95 -20 157 26 28 20 66 57 86 81 41 50 50 53
59 23 11 -33 75 -98 119 -121 80 -41 201 -17 258 51 55 65 51 173 -12 312 -26
57 -45 114 -48 145 -4 48 -2 54 31 90 31 34 41 39 80 39 31 0 55 -7 75 -22
l30 -22 32 40 c37 47 33 57 -42 95 -58 29 -135 32 -193 5 -48 -22 -71 -48
-232 -266 -202 -273 -287 -370 -320 -363 -14 3 -18 13 -18 48 1 56 68 199 184
390 72 119 80 136 65 145 -9 6 -32 23 -50 38 l-32 28 -34 -21 c-77 -47 -168
-48 -235 -3 -19 13 -36 23 -37 21 -1 -2 -31 -55 -66 -118 -208 -377 -396 -581
-489 -529 -36 20 -48 73 -30 129 l14 43 55 2 c151 4 303 151 317 307 7 68 -7
108 -49 143 -82 69 -207 -11 -340 -215 -71 -110 -223 -314 -275 -368 -70 -73
-115 -48 -87 49 18 64 99 220 192 373 62 102 65 110 48 120 -11 6 -33 23 -50
38 l-32 26 -39 -24 c-72 -43 -170 -40 -237 7 l-26 19 -57 -107 c-150 -281
-292 -495 -359 -538 -25 -17 -28 -17 -43 -2 -43 42 37 244 195 494 l52 83 -28
14 c-15 8 -36 23 -46 35 -11 12 -22 21 -25 21 -4 0 -24 -30 -46 -67 l-39 -66
-17 39 c-38 89 -109 114 -201 71 -68 -30 -90 -53 -258 -257 -221 -270 -335
-380 -396 -380 -32 0 -73 37 -79 73 -25 135 139 467 230 467 36 0 41 -22 17
-85 l-20 -55 45 -20 c25 -11 49 -20 54 -20 5 0 18 32 30 71 24 78 22 133 -6
175 -33 50 -129 69 -190 37z m674 -122 c14 -26 -1 -76 -64 -206 -63 -131 -139
-250 -184 -288 -27 -22 -36 -25 -53 -16 -18 10 -20 18 -15 59 12 103 122 329
205 422 48 53 92 65 111 29z m1306 9 c8 -14 -28 -84 -70 -135 -32 -40 -131
-103 -142 -91 -18 17 86 159 151 207 44 32 52 34 61 19z m966 -343 c26 -66 25
-109 -7 -146 -57 -68 -142 -44 -189 54 -16 32 -24 59 -19 67 4 7 37 55 73 107
l64 93 29 -63 c17 -35 38 -86 49 -112z"/>
<path d="M2348 202 c-21 -15 -37 -31 -38 -36 -1 -24 75 -97 128 -123 49 -24
69 -28 142 -28 58 0 97 5 121 16 l36 17 -12 48 c-9 33 -18 48 -26 45 -134 -37
-212 -21 -278 55 -17 19 -32 34 -33 33 -2 0 -20 -13 -40 -27z"/>
</g>
</svg>
